<svg width="24" height="24" viewBox="0 0 24 24" fill="none" xmlns="http://www.w3.org/2000/svg">
<path d="M23.0729 16.8606L17.9268 14.6551C17.789 14.6092 17.6511 14.5632 17.4673 14.5632C17.1457 14.5632 16.8241 14.747 16.6403 14.9768L14.343 17.7795C10.7591 16.0795 7.91042 13.2308 6.21039 9.64694L9.01314 7.34961C9.24287 7.16582 9.42666 6.84419 9.42666 6.47662C9.42666 6.33878 9.38071 6.20094 9.33477 6.0631L7.12932 0.917056C6.94553 0.503535 6.53201 0.227854 6.07255 0.227854C6.0266 0.227854 5.93471 0.273801 5.84281 0.273801L1.06435 1.37652C0.558932 1.51436 0.237305 1.92788 0.237305 2.4333C0.237305 14.2416 9.74829 23.7526 21.5566 23.7526C22.062 23.7526 22.4755 23.431 22.6134 22.9256L23.7161 18.1471C23.7161 18.0552 23.7161 17.9633 23.7161 17.9174C23.7161 17.4579 23.4404 17.0444 23.0729 16.8606Z" fill="white"/>
</svg>
